<mxfile host="app.diagrams.net" modified="2022-10-31T15:45:34.437Z" agent="5.0 (Macintosh; Intel Mac OS X 10_15_7) AppleWebKit/537.36 (KHTML, like Gecko) Chrome/106.0.0.0 Safari/537.36" etag="YE6tspfU7Dl17_zwE8np" version="20.5.1" type="github">
  <diagram id="R2lEEEUBdFMjLlhIrx00" name="Page-1">
    <mxGraphModel dx="970" dy="557" grid="1" gridSize="10" guides="1" tooltips="1" connect="1" arrows="1" fold="1" page="1" pageScale="1" pageWidth="850" pageHeight="1100" math="0" shadow="0" extFonts="Permanent Marker^https://fonts.googleapis.com/css?family=Permanent+Marker">
      <root>
        <mxCell id="0" />
        <mxCell id="1" parent="0" />
        <mxCell id="XuO8XnObHlx6Pe1Dl6JW-28" style="edgeStyle=none;rounded=0;orthogonalLoop=1;jettySize=auto;html=1;entryX=0;entryY=1;entryDx=0;entryDy=0;" edge="1" parent="1" source="XuO8XnObHlx6Pe1Dl6JW-1" target="XuO8XnObHlx6Pe1Dl6JW-4">
          <mxGeometry relative="1" as="geometry" />
        </mxCell>
        <mxCell id="XuO8XnObHlx6Pe1Dl6JW-29" style="edgeStyle=none;rounded=0;orthogonalLoop=1;jettySize=auto;html=1;entryX=0;entryY=0.5;entryDx=0;entryDy=0;" edge="1" parent="1" source="XuO8XnObHlx6Pe1Dl6JW-1" target="XuO8XnObHlx6Pe1Dl6JW-5">
          <mxGeometry relative="1" as="geometry" />
        </mxCell>
        <mxCell id="XuO8XnObHlx6Pe1Dl6JW-31" style="edgeStyle=none;rounded=0;orthogonalLoop=1;jettySize=auto;html=1;entryX=0;entryY=0;entryDx=0;entryDy=0;" edge="1" parent="1" source="XuO8XnObHlx6Pe1Dl6JW-1" target="XuO8XnObHlx6Pe1Dl6JW-6">
          <mxGeometry relative="1" as="geometry" />
        </mxCell>
        <mxCell id="XuO8XnObHlx6Pe1Dl6JW-1" value="用户" style="shape=umlActor;verticalLabelPosition=bottom;verticalAlign=top;html=1;outlineConnect=0;" vertex="1" parent="1">
          <mxGeometry x="80" y="290" width="30" height="60" as="geometry" />
        </mxCell>
        <mxCell id="XuO8XnObHlx6Pe1Dl6JW-4" value="人群推送管理" style="ellipse;whiteSpace=wrap;html=1;" vertex="1" parent="1">
          <mxGeometry x="180" y="130" width="90" height="60" as="geometry" />
        </mxCell>
        <mxCell id="XuO8XnObHlx6Pe1Dl6JW-5" value="营销人群&lt;br&gt;推送管理" style="ellipse;whiteSpace=wrap;html=1;" vertex="1" parent="1">
          <mxGeometry x="270" y="290" width="90" height="60" as="geometry" />
        </mxCell>
        <mxCell id="XuO8XnObHlx6Pe1Dl6JW-6" value="标签推送管理" style="ellipse;whiteSpace=wrap;html=1;" vertex="1" parent="1">
          <mxGeometry x="180" y="450" width="90" height="60" as="geometry" />
        </mxCell>
        <mxCell id="XuO8XnObHlx6Pe1Dl6JW-7" value="创建配置" style="ellipse;whiteSpace=wrap;html=1;" vertex="1" parent="1">
          <mxGeometry x="210" y="10" width="70" height="50" as="geometry" />
        </mxCell>
        <mxCell id="XuO8XnObHlx6Pe1Dl6JW-8" value="删除配置" style="ellipse;whiteSpace=wrap;html=1;" vertex="1" parent="1">
          <mxGeometry x="375" y="20" width="75" height="50" as="geometry" />
        </mxCell>
        <mxCell id="XuO8XnObHlx6Pe1Dl6JW-9" value="修改配置" style="ellipse;whiteSpace=wrap;html=1;" vertex="1" parent="1">
          <mxGeometry x="300" y="10" width="70" height="50" as="geometry" />
        </mxCell>
        <mxCell id="XuO8XnObHlx6Pe1Dl6JW-10" value="推送人群&lt;span style=&quot;color: rgba(0, 0, 0, 0); font-family: monospace; font-size: 0px; text-align: start;&quot;&gt;%3CmxGraphModel%3E%3Croot%3E%3CmxCell%20id%3D%220%22%2F%3E%3CmxCell%20id%3D%221%22%20parent%3D%220%22%2F%3E%3CmxCell%20id%3D%222%22%20value%3D%22%E4%BA%BA%E7%BE%A4%E6%8E%A8%E9%80%81%E7%AE%A1%E7%90%86%22%20style%3D%22ellipse%3BwhiteSpace%3Dwrap%3Bhtml%3D1%3B%22%20vertex%3D%221%22%20parent%3D%221%22%3E%3CmxGeometry%20x%3D%22170%22%20y%3D%22170%22%20width%3D%2290%22%20height%3D%2260%22%20as%3D%22geometry%22%2F%3E%3C%2FmxCell%3E%3C%2Froot%3E%3C%2FmxGraphModel%3E&lt;/span&gt;" style="ellipse;whiteSpace=wrap;html=1;" vertex="1" parent="1">
          <mxGeometry x="402.5" y="80" width="70" height="50" as="geometry" />
        </mxCell>
        <mxCell id="XuO8XnObHlx6Pe1Dl6JW-11" value="启动推送" style="ellipse;whiteSpace=wrap;html=1;" vertex="1" parent="1">
          <mxGeometry x="320" y="200" width="70" height="50" as="geometry" />
        </mxCell>
        <mxCell id="XuO8XnObHlx6Pe1Dl6JW-12" value="暂停推送" style="ellipse;whiteSpace=wrap;html=1;" vertex="1" parent="1">
          <mxGeometry x="370" y="140" width="65" height="50" as="geometry" />
        </mxCell>
        <mxCell id="XuO8XnObHlx6Pe1Dl6JW-13" value="启动推送" style="ellipse;whiteSpace=wrap;html=1;" vertex="1" parent="1">
          <mxGeometry x="455" y="350" width="70" height="50" as="geometry" />
        </mxCell>
        <mxCell id="XuO8XnObHlx6Pe1Dl6JW-14" value="启动推送" style="ellipse;whiteSpace=wrap;html=1;" vertex="1" parent="1">
          <mxGeometry x="455" y="290" width="70" height="50" as="geometry" />
        </mxCell>
        <mxCell id="XuO8XnObHlx6Pe1Dl6JW-15" value="推送人群" style="ellipse;whiteSpace=wrap;html=1;" vertex="1" parent="1">
          <mxGeometry x="455" y="230" width="70" height="50" as="geometry" />
        </mxCell>
        <mxCell id="XuO8XnObHlx6Pe1Dl6JW-18" value="启动推送" style="ellipse;whiteSpace=wrap;html=1;" vertex="1" parent="1">
          <mxGeometry x="210" y="580" width="70" height="50" as="geometry" />
        </mxCell>
        <mxCell id="XuO8XnObHlx6Pe1Dl6JW-19" value="启动推送" style="ellipse;whiteSpace=wrap;html=1;" vertex="1" parent="1">
          <mxGeometry x="300" y="580" width="70" height="50" as="geometry" />
        </mxCell>
        <mxCell id="XuO8XnObHlx6Pe1Dl6JW-20" value="启动推送" style="ellipse;whiteSpace=wrap;html=1;" vertex="1" parent="1">
          <mxGeometry x="377.5" y="570" width="70" height="50" as="geometry" />
        </mxCell>
        <mxCell id="XuO8XnObHlx6Pe1Dl6JW-21" value="启动推送" style="ellipse;whiteSpace=wrap;html=1;" vertex="1" parent="1">
          <mxGeometry x="402.5" y="510" width="70" height="50" as="geometry" />
        </mxCell>
        <mxCell id="XuO8XnObHlx6Pe1Dl6JW-22" value="启动推送" style="ellipse;whiteSpace=wrap;html=1;" vertex="1" parent="1">
          <mxGeometry x="370" y="450" width="70" height="50" as="geometry" />
        </mxCell>
        <mxCell id="XuO8XnObHlx6Pe1Dl6JW-23" value="启动推送" style="ellipse;whiteSpace=wrap;html=1;" vertex="1" parent="1">
          <mxGeometry x="320" y="390" width="70" height="50" as="geometry" />
        </mxCell>
        <mxCell id="XuO8XnObHlx6Pe1Dl6JW-32" value="" style="endArrow=none;html=1;rounded=0;entryX=0.5;entryY=1;entryDx=0;entryDy=0;exitX=1;exitY=0;exitDx=0;exitDy=0;" edge="1" parent="1" source="XuO8XnObHlx6Pe1Dl6JW-4" target="XuO8XnObHlx6Pe1Dl6JW-9">
          <mxGeometry width="50" height="50" relative="1" as="geometry">
            <mxPoint x="260" y="140" as="sourcePoint" />
            <mxPoint x="310" y="90" as="targetPoint" />
          </mxGeometry>
        </mxCell>
        <mxCell id="XuO8XnObHlx6Pe1Dl6JW-33" value="" style="endArrow=none;html=1;rounded=0;entryX=0.5;entryY=1;entryDx=0;entryDy=0;exitX=1;exitY=0;exitDx=0;exitDy=0;" edge="1" parent="1" source="XuO8XnObHlx6Pe1Dl6JW-4">
          <mxGeometry width="50" height="50" relative="1" as="geometry">
            <mxPoint x="170" y="140" as="sourcePoint" />
            <mxPoint x="245" y="60" as="targetPoint" />
          </mxGeometry>
        </mxCell>
        <mxCell id="XuO8XnObHlx6Pe1Dl6JW-34" value="" style="endArrow=none;html=1;rounded=0;entryX=0;entryY=1;entryDx=0;entryDy=0;exitX=1;exitY=0;exitDx=0;exitDy=0;" edge="1" parent="1" source="XuO8XnObHlx6Pe1Dl6JW-4" target="XuO8XnObHlx6Pe1Dl6JW-8">
          <mxGeometry width="50" height="50" relative="1" as="geometry">
            <mxPoint x="280" y="160" as="sourcePoint" />
            <mxPoint x="355" y="80" as="targetPoint" />
          </mxGeometry>
        </mxCell>
        <mxCell id="XuO8XnObHlx6Pe1Dl6JW-35" value="" style="endArrow=none;html=1;rounded=0;entryX=0.5;entryY=1;entryDx=0;entryDy=0;exitX=1;exitY=0;exitDx=0;exitDy=0;" edge="1" parent="1" source="XuO8XnObHlx6Pe1Dl6JW-4">
          <mxGeometry width="50" height="50" relative="1" as="geometry">
            <mxPoint x="260" y="140" as="sourcePoint" />
            <mxPoint x="402.5" y="100" as="targetPoint" />
          </mxGeometry>
        </mxCell>
        <mxCell id="XuO8XnObHlx6Pe1Dl6JW-36" value="" style="endArrow=none;html=1;rounded=0;entryX=0;entryY=0.5;entryDx=0;entryDy=0;exitX=1;exitY=0;exitDx=0;exitDy=0;" edge="1" parent="1" source="XuO8XnObHlx6Pe1Dl6JW-4" target="XuO8XnObHlx6Pe1Dl6JW-12">
          <mxGeometry width="50" height="50" relative="1" as="geometry">
            <mxPoint x="260" y="140" as="sourcePoint" />
            <mxPoint x="375" y="100" as="targetPoint" />
          </mxGeometry>
        </mxCell>
        <mxCell id="XuO8XnObHlx6Pe1Dl6JW-37" value="" style="endArrow=none;html=1;rounded=0;entryX=0;entryY=0;entryDx=0;entryDy=0;exitX=1;exitY=0;exitDx=0;exitDy=0;" edge="1" parent="1" source="XuO8XnObHlx6Pe1Dl6JW-4" target="XuO8XnObHlx6Pe1Dl6JW-11">
          <mxGeometry width="50" height="50" relative="1" as="geometry">
            <mxPoint x="310" y="190" as="sourcePoint" />
            <mxPoint x="385" y="110" as="targetPoint" />
          </mxGeometry>
        </mxCell>
        <mxCell id="XuO8XnObHlx6Pe1Dl6JW-38" value="" style="endArrow=none;html=1;rounded=0;exitX=1;exitY=0.5;exitDx=0;exitDy=0;entryX=0;entryY=0.5;entryDx=0;entryDy=0;" edge="1" parent="1" source="XuO8XnObHlx6Pe1Dl6JW-5" target="XuO8XnObHlx6Pe1Dl6JW-15">
          <mxGeometry width="50" height="50" relative="1" as="geometry">
            <mxPoint x="390" y="260" as="sourcePoint" />
            <mxPoint x="440" y="210" as="targetPoint" />
          </mxGeometry>
        </mxCell>
        <mxCell id="XuO8XnObHlx6Pe1Dl6JW-39" value="" style="endArrow=none;html=1;rounded=0;entryX=0;entryY=0.5;entryDx=0;entryDy=0;" edge="1" parent="1" target="XuO8XnObHlx6Pe1Dl6JW-14">
          <mxGeometry width="50" height="50" relative="1" as="geometry">
            <mxPoint x="360" y="320" as="sourcePoint" />
            <mxPoint x="435" y="240" as="targetPoint" />
          </mxGeometry>
        </mxCell>
        <mxCell id="XuO8XnObHlx6Pe1Dl6JW-40" value="" style="endArrow=none;html=1;rounded=0;entryX=0.5;entryY=1;entryDx=0;entryDy=0;exitX=1;exitY=0.5;exitDx=0;exitDy=0;" edge="1" parent="1" source="XuO8XnObHlx6Pe1Dl6JW-5">
          <mxGeometry width="50" height="50" relative="1" as="geometry">
            <mxPoint x="380" y="455" as="sourcePoint" />
            <mxPoint x="455" y="375" as="targetPoint" />
          </mxGeometry>
        </mxCell>
        <mxCell id="XuO8XnObHlx6Pe1Dl6JW-41" value="" style="endArrow=none;html=1;rounded=0;exitX=1;exitY=0.5;exitDx=0;exitDy=0;" edge="1" parent="1" source="XuO8XnObHlx6Pe1Dl6JW-6">
          <mxGeometry width="50" height="50" relative="1" as="geometry">
            <mxPoint x="390" y="380" as="sourcePoint" />
            <mxPoint x="330" y="430" as="targetPoint" />
          </mxGeometry>
        </mxCell>
        <mxCell id="XuO8XnObHlx6Pe1Dl6JW-42" value="" style="endArrow=none;html=1;rounded=0;entryX=0.5;entryY=1;entryDx=0;entryDy=0;exitX=1;exitY=0.5;exitDx=0;exitDy=0;" edge="1" parent="1" source="XuO8XnObHlx6Pe1Dl6JW-6">
          <mxGeometry width="50" height="50" relative="1" as="geometry">
            <mxPoint x="295" y="560" as="sourcePoint" />
            <mxPoint x="370" y="480" as="targetPoint" />
          </mxGeometry>
        </mxCell>
        <mxCell id="XuO8XnObHlx6Pe1Dl6JW-43" value="" style="endArrow=none;html=1;rounded=0;entryX=0.5;entryY=1;entryDx=0;entryDy=0;exitX=1;exitY=0.5;exitDx=0;exitDy=0;" edge="1" parent="1" source="XuO8XnObHlx6Pe1Dl6JW-6">
          <mxGeometry width="50" height="50" relative="1" as="geometry">
            <mxPoint x="327.5" y="610" as="sourcePoint" />
            <mxPoint x="402.5" y="530" as="targetPoint" />
          </mxGeometry>
        </mxCell>
        <mxCell id="XuO8XnObHlx6Pe1Dl6JW-44" value="" style="endArrow=none;html=1;rounded=0;entryX=0;entryY=0;entryDx=0;entryDy=0;exitX=1;exitY=0.5;exitDx=0;exitDy=0;" edge="1" parent="1" source="XuO8XnObHlx6Pe1Dl6JW-6" target="XuO8XnObHlx6Pe1Dl6JW-20">
          <mxGeometry width="50" height="50" relative="1" as="geometry">
            <mxPoint x="390" y="440" as="sourcePoint" />
            <mxPoint x="440" y="390" as="targetPoint" />
          </mxGeometry>
        </mxCell>
        <mxCell id="XuO8XnObHlx6Pe1Dl6JW-45" value="" style="endArrow=none;html=1;rounded=0;entryX=0.5;entryY=1;entryDx=0;entryDy=0;exitX=1;exitY=0.5;exitDx=0;exitDy=0;" edge="1" parent="1" source="XuO8XnObHlx6Pe1Dl6JW-6">
          <mxGeometry width="50" height="50" relative="1" as="geometry">
            <mxPoint x="250" y="660" as="sourcePoint" />
            <mxPoint x="325" y="580" as="targetPoint" />
          </mxGeometry>
        </mxCell>
        <mxCell id="XuO8XnObHlx6Pe1Dl6JW-46" value="" style="endArrow=none;html=1;rounded=0;entryX=0.5;entryY=0;entryDx=0;entryDy=0;exitX=1;exitY=0.5;exitDx=0;exitDy=0;" edge="1" parent="1" source="XuO8XnObHlx6Pe1Dl6JW-6" target="XuO8XnObHlx6Pe1Dl6JW-18">
          <mxGeometry width="50" height="50" relative="1" as="geometry">
            <mxPoint x="390" y="440" as="sourcePoint" />
            <mxPoint x="440" y="390" as="targetPoint" />
          </mxGeometry>
        </mxCell>
      </root>
    </mxGraphModel>
  </diagram>
</mxfile>
